<svg id="Capa_1" enable-background="new 0 0 512 512" height="512" viewBox="0 0 512 512" width="512" xmlns="http://www.w3.org/2000/svg"><path d="m492.637 193.743c-9.286-9.796-21.058-16.742-33.997-20.207-2.638-22.004-12.028-42.807-27.09-59.603-14.89-16.605-34.472-28.385-56.067-33.916-5.503-45.01-44.768-80.017-92.235-80.017-46.607 0-85.308 33.748-91.902 77.578-24.147 3.407-46.433 14.371-63.82 31.612-17.143 16.998-27.966 38.547-31.279 61.816h-23.7c-40.003 0-72.547 31.876-72.547 71.056s32.544 71.055 72.547 71.055h91.125 243.156 32.625c40.003 0 72.547-31.875 72.547-71.055 0-17.987-6.877-35.146-19.363-48.319z" fill="#0095ff"/><path d="m492.637 193.743c-9.286-9.796-21.058-16.742-33.997-20.207-2.638-22.004-12.028-42.807-27.09-59.603-14.89-16.605-34.472-28.385-56.067-33.916-5.503-45.01-44.768-80.017-92.235-80.017-2.39 0-4.753.111-7.098.285v312.232s122.394.6 130.678.6h32.625c40.003 0 72.547-31.875 72.547-71.055 0-17.987-6.877-35.146-19.363-48.319z" fill="#006eff"/><path d="m359.684 171.333h-167.068c-24.231 0-43.944 19.454-43.944 43.366v217.043c0 23.912 19.713 43.366 43.944 43.366h164.942l46.069-123.191v-137.219c.001-23.912-19.712-43.365-43.943-43.365z" fill="#e7f0ef"/><path d="m359.684 171.333h-83.534v303.775h81.409l46.069-123.191v-137.219c0-23.912-19.713-43.365-43.944-43.365z" fill="#d6dbda"/><path d="m455.265 427.697c-2.461-5.29-7.767-8.673-13.601-8.673h-5.279v-67.107c0-8.284-6.716-15-15-15h-32.757c-26.333 0-47.756 21.129-47.756 47.101v35.006h-5.279c-5.834 0-11.14 3.383-13.601 8.673s-1.631 11.527 2.127 15.99l53.035 62.976c2.851 3.384 7.049 5.338 11.474 5.338s8.623-1.953 11.474-5.338l53.036-62.976c3.758-4.463 4.588-10.7 2.127-15.99z" fill="#90cc1c"/><path d="m326.518 342.517h-100.736c-8.284 0-15-6.716-15-15s6.716-15 15-15h100.735c8.284 0 15 6.716 15 15s-6.715 15-14.999 15z" fill="#787780"/><path d="m326.518 283.717h-100.736c-8.284 0-15-6.716-15-15s6.716-15 15-15h100.735c8.284 0 15 6.716 15 15s-6.715 15-14.999 15z" fill="#787780"/><path d="m326.518 312.517h-50.368v30h50.368c8.284 0 15-6.716 15-15s-6.716-15-15-15z" fill="#57555c"/><path d="m341.518 268.717c0-8.284-6.716-15-15-15h-50.368v30h50.368c8.284 0 15-6.716 15-15z" fill="#57555c"/><path d="m455.265 427.697c-2.461-5.29-7.767-8.673-13.601-8.673h-5.279v-67.107c0-8.284-6.716-15-15-15h-32.756v175.083c4.425 0 8.623-1.953 11.473-5.338l53.036-62.976c3.758-4.462 4.588-10.699 2.127-15.989z" fill="#6b0"/></svg>